# xmcd CD database file
#
# Track frame offsets:
#	150
#	27852
#	61875
#	82419
#	111681
#	127285
#	149569
#	171834
#	193260
#	212527
#
# Disc length: 3091 seconds
#
# Revision: 1
# Processed by: cddbd v1.5.2PL0 Copyright (c) Steve Scherf et al.
# Submitted via: CDex 1.70beta2
#
DISCID=a40c110a
DTITLE=Basso Valdambrini - Stella By Starlight
DYEAR=1970
DGENRE=Jazz
TTITLE0=Eighty One
TTITLE1=Spanish Mood
TTITLE2=Uroni
TTITLE3=Sweet Little Maya
TTITLE4=Donna Lu
TTITLE5=Conseguenza
TTITLE6=Ricorda me
TTITLE7=Inver Time
TTITLE8=Stella By Starlight
TTITLE9=Ginger Bread Boy
EXTD=YEAR: 1970
EXTT0=
EXTT1=
EXTT2=
EXTT3=
EXTT4=
EXTT5=
EXTT6=
EXTT7=
EXTT8=
EXTT9=
PLAYORDER=
